<?xml version="1.0" ?><svg enable-background="new 0 0 32 32" version="1.1" viewBox="0 0 32 32" xml:space="preserve" xmlns="http://www.w3.org/2000/svg" xmlns:xlink="http://www.w3.org/1999/xlink"><g id="Flat_copy"><path d="M25.845,32H32C32,14.354,17.645-0.011,0.001-0.011v6.138C14.248,6.126,25.845,17.735,25.845,32z M4.262,32.011   c2.36,0,4.267-1.896,4.267-4.246c0-2.337-1.907-4.254-4.267-4.254c-2.35,0-4.26,1.917-4.26,4.254   C0,30.115,1.91,32.011,4.262,32.011z M14.967,32.002L14.967,32.002h6.162c0-11.654-9.481-21.134-21.129-21.134v6.136   c3.995,0,7.753,1.562,10.581,4.393C13.407,24.219,14.967,27.993,14.967,32.002z"/></g></svg>